<svg width="384" height="384" viewBox="0 0 384 384" fill="none" xmlns="http://www.w3.org/2000/svg">
<path d="M299.25 288.15C282.675 259.35 251.55 240 216 240H168C132.45 240 101.325 259.35 84.75 288.15C111.15 317.55 149.4 336 192 336C234.6 336 272.85 317.475 299.25 288.15ZM384 192C384 298.05 298.05 384 192 384C85.95 384 0 298.05 0 192C0 85.95 85.95 0 192 0C298.05 0 384 85.95 384 192ZM192 204C221.85 204 246 179.85 246 150C246 120.15 221.85 96 192 96C162.15 96 138 120.15 138 150C138 179.85 162.15 204 192 204Z" fill="white"/>
</svg>
