<svg width="50" height="40" viewBox="0 0 50 40" fill="none" xmlns="http://www.w3.org/2000/svg">
<g filter="url(#filter0_i_118_380)">
<path d="M4.6875 0C2.09961 0 0 2.23958 0 5C0 6.57292 0.693359 8.05208 1.875 9L23.125 26C24.2383 26.8854 25.7617 26.8854 26.875 26L48.125 9C49.3066 8.05208 50 6.57292 50 5C50 2.23958 47.9004 0 45.3125 0H4.6875ZM0 11.6667V33.3333C0 37.0104 2.80273 40 6.25 40H43.75C47.1973 40 50 37.0104 50 33.3333V11.6667L28.75 28.6667C26.5234 30.4479 23.4766 30.4479 21.25 28.6667L0 11.6667Z" fill="white"/>
</g>
<defs>
<filter id="filter0_i_118_380" x="0" y="0" width="50" height="44" filterUnits="userSpaceOnUse" color-interpolation-filters="sRGB">
<feFlood flood-opacity="0" result="BackgroundImageFix"/>
<feBlend mode="normal" in="SourceGraphic" in2="BackgroundImageFix" result="shape"/>
<feColorMatrix in="SourceAlpha" type="matrix" values="0 0 0 0 0 0 0 0 0 0 0 0 0 0 0 0 0 0 127 0" result="hardAlpha"/>
<feOffset dy="4"/>
<feGaussianBlur stdDeviation="2"/>
<feComposite in2="hardAlpha" operator="arithmetic" k2="-1" k3="1"/>
<feColorMatrix type="matrix" values="0 0 0 0 0 0 0 0 0 0 0 0 0 0 0 0 0 0 0.25 0"/>
<feBlend mode="normal" in2="shape" result="effect1_innerShadow_118_380"/>
</filter>
</defs>
</svg>
