<svg width="175" height="170" viewBox="0 0 175 170" fill="none" xmlns="http://www.w3.org/2000/svg">
<g filter="url(#filter0_i_118_368)">
<path d="M96.569 5.94141C94.8207 2.31055 91.1263 0 87.069 0C83.0117 0 79.3502 2.31055 77.569 5.94141L56.3589 49.6107L8.99084 56.6084C5.03251 57.2025 1.7339 59.9752 0.513411 63.7711C-0.707075 67.567 0.282507 71.759 3.11931 74.5646L37.4908 108.596L29.3763 156.688C28.7165 160.649 30.3658 164.676 33.6315 167.02C36.8971 169.363 41.2183 169.66 44.7808 167.779L87.102 145.168L129.423 167.779C132.986 169.66 137.307 169.396 140.572 167.02C143.838 164.643 145.487 160.649 144.828 156.688L136.68 108.596L171.052 74.5646C173.888 71.759 174.911 67.567 173.657 63.7711C172.404 59.9752 169.138 57.2025 165.18 56.6084L117.779 49.6107L96.569 5.94141Z" fill="white"/>
</g>
<defs>
<filter id="filter0_i_118_368" x="0" y="0" width="174.185" height="193.019" filterUnits="userSpaceOnUse" color-interpolation-filters="sRGB">
<feFlood flood-opacity="0" result="BackgroundImageFix"/>
<feBlend mode="normal" in="SourceGraphic" in2="BackgroundImageFix" result="shape"/>
<feColorMatrix in="SourceAlpha" type="matrix" values="0 0 0 0 0 0 0 0 0 0 0 0 0 0 0 0 0 0 127 0" result="hardAlpha"/>
<feOffset dy="24"/>
<feGaussianBlur stdDeviation="16"/>
<feComposite in2="hardAlpha" operator="arithmetic" k2="-1" k3="1"/>
<feColorMatrix type="matrix" values="0 0 0 0 0 0 0 0 0 0 0 0 0 0 0 0 0 0 0.5 0"/>
<feBlend mode="normal" in2="shape" result="effect1_innerShadow_118_368"/>
</filter>
</defs>
</svg>
