<svg width="610" height="610" viewBox="0 0 610 610" fill="none" xmlns="http://www.w3.org/2000/svg">
<path d="M362.351 199.093C360.755 200.098 359.383 200.988 358.286 201.711C341.464 197.328 323.493 195.094 305.777 195.094C288.061 195.094 270.089 197.328 253.267 201.711C252.171 200.988 250.798 200.098 249.202 199.093C244.945 196.413 239.046 192.879 232.532 189.508C226.057 186.158 218.76 182.857 211.74 180.757C205.001 178.741 197.246 177.43 190.538 179.505L187.11 180.565L185.785 183.9C175.064 210.878 178.881 232.89 182.027 243.249C176.312 249.889 171.678 256.447 168.415 264.066C164.578 273.025 162.857 282.925 162.857 295.42C162.857 338.135 175.483 363.205 196.175 377.76C212.412 389.181 232.757 393.375 252.505 395.952C249.718 400.931 247.504 406.824 246.136 413.584C240.475 415.715 232.679 417.695 224.657 416.977C215.293 416.138 204.959 411.605 196.821 397.237L196.807 397.213L196.794 397.19C189.921 385.257 180.253 378.781 172.386 375.326C168.462 373.603 164.955 372.615 162.391 372.052C161.105 371.769 160.045 371.592 159.274 371.482C158.888 371.427 158.574 371.389 158.338 371.363C158.22 371.35 158.122 371.34 158.044 371.333C158.005 371.329 157.972 371.326 157.943 371.324L157.905 371.321L157.888 371.319L157.881 371.319C157.877 371.318 157.874 371.318 157.281 378.795L157.874 371.318L157.624 371.298L157.374 371.295C154.425 371.259 151.776 371.452 149.495 371.984C147.315 372.492 144.675 373.493 142.666 375.698C140.355 378.235 139.786 381.344 140.204 384.018C140.569 386.355 141.645 388.257 142.501 389.516C144.238 392.072 146.685 394.287 148.32 395.654C149.203 396.393 149.999 397.005 150.578 397.437C150.869 397.654 151.11 397.828 151.285 397.953C151.373 398.016 151.445 398.066 151.498 398.104L151.565 398.15L151.587 398.166L151.596 398.172L151.6 398.175C151.601 398.176 151.603 398.177 155.857 392L151.603 398.177L152.128 398.538L152.706 398.806C157.473 401.013 162.444 407.048 166.577 413.947C168.519 417.187 170.068 420.262 171.133 422.531C171.663 423.661 172.067 424.578 172.334 425.201C172.467 425.512 172.565 425.749 172.628 425.901C172.63 425.906 172.632 425.911 172.634 425.916C180.434 449.355 202.613 456.323 219.996 457.968C228.94 458.815 237.37 458.362 243.51 457.716C243.96 457.668 244.398 457.62 244.824 457.571C244.847 464.797 244.892 472.754 244.938 479.921C244.957 482.973 244.976 485.877 244.994 488.52C245.035 494.765 245.067 499.555 245.067 501.397C245.067 502.605 244.63 503.455 244.201 503.846C243.996 504.032 242.916 504.954 239.491 504.451C157.43 476.702 99.9196 398.43 99.9196 306.812C99.9196 192.137 187.415 105.228 302.152 105.228C417.142 105.228 509.821 192.385 509.821 306.812V306.823C509.946 398.548 454.137 476.867 372.191 504.452C368.852 504.949 367.752 504.046 367.512 503.828C367.046 503.407 366.616 502.54 366.616 501.397C366.616 499.112 366.644 493.718 366.682 486.462C366.701 482.699 366.723 478.434 366.745 473.841C366.81 460.423 366.875 444.258 366.875 429.804C366.875 415.731 363.838 404.45 359.022 395.937C378.835 393.388 399.515 389.266 416.122 377.973C437.386 363.514 450.638 338.441 450.638 295.42C450.638 282.66 448.341 272.667 443.949 263.715C440.26 256.198 435.229 249.708 429.513 243.201C432.582 232.956 436.477 210.965 425.773 183.91L424.45 180.567L421.016 179.505C414.308 177.43 406.552 178.741 399.813 180.757C392.794 182.857 385.496 186.158 379.022 189.508C372.507 192.879 366.608 196.413 362.351 199.093ZM211.523 431.716C210.932 431.578 210.389 431.357 209.913 431.078C209.674 430.439 209.511 429.61 209.635 428.653C210.458 428.986 211.285 429.293 212.113 429.574C212.129 429.579 212.145 429.585 212.16 429.59L211.991 430.154L211.523 431.716ZM211.89 431.822L212.396 429.669C213.25 429.953 214.107 430.209 214.964 430.44C214.653 431.144 214.246 431.66 213.851 432.032C213.212 432.081 212.538 432.017 211.89 431.822ZM246.511 432.735C245.921 432.811 245.346 432.8 244.813 432.713C244.335 432.214 243.841 431.482 243.581 430.453C243.564 430.383 243.547 430.312 243.532 430.24L245.835 429.933L246.211 429.883L246.511 432.735ZM249.03 431.917C248.494 432.22 247.864 432.462 247.163 432.617L246.577 429.834L249.385 429.46C249.513 430.421 249.327 431.259 249.03 431.917ZM246.871 429.694L246.558 429.742L246.495 429.443L246.464 429.296C247.397 429.017 248.296 428.728 249.159 428.433C249.217 428.616 249.268 428.808 249.31 429.01C249.318 429.048 249.325 429.087 249.332 429.126C249.344 429.186 249.354 429.248 249.364 429.31L246.871 429.694ZM228.192 434.485C227.762 433.927 227.359 433.144 227.238 432.121C228.137 432.134 229.028 432.125 229.911 432.096C229.921 432.096 229.932 432.096 229.943 432.095C230.018 432.093 230.094 432.09 230.17 432.087C230.213 432.086 230.257 432.084 230.3 432.082C231.164 432.048 232.018 431.995 232.863 431.924C232.784 432.939 232.438 433.735 232.044 434.323C231.59 434.462 231.093 434.553 230.564 434.583C230.434 434.59 230.303 434.594 230.17 434.594C230.082 434.602 229.996 434.608 229.911 434.613C229.287 434.648 228.711 434.601 228.192 434.485ZM246.202 429.797L243.525 430.209C243.524 430.204 243.523 430.199 243.522 430.195C243.517 430.168 243.513 430.14 243.508 430.113C244.136 429.954 244.752 429.789 245.355 429.618C245.625 429.542 245.893 429.465 246.159 429.387L246.17 429.493L246.202 429.797ZM194.212 420.675C194.299 420.207 194.478 419.626 194.809 419.025C195.457 419.64 196.112 420.23 196.773 420.795C196.786 420.806 196.798 420.816 196.811 420.827C196.834 420.847 196.858 420.867 196.881 420.887C197.618 421.513 198.362 422.109 199.113 422.676C198.451 423.146 197.756 423.395 197.136 423.506C196.568 423.226 196.001 422.823 195.473 422.295C195.45 422.275 195.427 422.254 195.404 422.234C194.899 421.784 194.494 421.28 194.196 420.763C194.201 420.734 194.206 420.704 194.212 420.675ZM177.873 396.899C178.424 397.453 178.969 398.036 179.503 398.648C179.251 398.853 179.013 399.068 178.79 399.289C178.071 399.157 177.319 398.773 176.651 398.243L177.873 396.899ZM183.421 406.818C183.646 406.415 183.948 406.011 184.349 405.636C184.834 406.461 185.326 407.262 185.827 408.042C185.872 408.112 185.917 408.182 185.963 408.253C185.984 408.286 186.006 408.319 186.027 408.352C186.607 409.244 187.196 410.105 187.795 410.938C187.422 411.082 187.052 411.174 186.695 411.225C185.935 410.872 185.167 410.267 184.54 409.443C184.516 409.412 184.492 409.38 184.469 409.348C184.384 409.233 184.304 409.116 184.23 409C183.764 408.269 183.494 407.515 183.421 406.818ZM176.14 397.743C175.784 397.286 175.512 396.814 175.331 396.352C175.721 396.121 176.102 395.857 176.466 395.56C176.824 395.883 177.18 396.218 177.534 396.563L176.14 397.743ZM532.857 7.5H77.1429C38.6927 7.5 7.5 38.6927 7.5 77.1429V532.857C7.5 571.307 38.6927 602.5 77.1429 602.5H532.857C571.307 602.5 602.5 571.307 602.5 532.857V77.1429C602.5 38.6927 571.307 7.5 532.857 7.5Z" stroke="black" stroke-width="15"/>
</svg>
