<svg width="610" height="610" viewBox="0 0 610 610" fill="none" xmlns="http://www.w3.org/2000/svg">
<path d="M305.065 148.795C218.628 148.795 148.893 218.548 148.893 305C148.893 391.452 218.628 461.205 305.065 461.205C391.502 461.205 461.236 391.452 461.236 305C461.236 218.548 391.502 148.795 305.065 148.795ZM305.065 394.177C256.022 394.177 215.909 354.174 215.909 305C215.909 255.819 255.899 215.823 305.065 215.823C354.23 215.823 394.221 255.819 394.221 305C394.221 354.174 354.108 394.177 305.065 394.177ZM459.818 192.397C483.093 192.397 501.995 173.655 501.995 150.213C501.995 126.918 483.111 108.028 459.818 108.028C436.524 108.028 417.641 126.918 417.641 150.213C417.641 173.489 436.376 192.397 459.818 192.397ZM600.452 185.026C598.204 137.629 587.296 94.3337 551.426 58.5861C515.685 22.8371 472.402 11.9281 425.023 9.54904C376.852 6.81717 233.171 6.81699 184.987 9.54847C137.719 11.7978 94.4475 22.7115 58.5841 58.4465C22.6966 94.2055 11.9262 137.514 9.54857 184.885C6.81733 233.067 6.81714 376.779 9.54798 424.975C11.7965 472.376 22.7063 515.675 58.5841 551.424C94.4462 587.158 137.586 598.071 184.974 600.451C233.142 603.183 376.826 603.183 425.012 600.452C472.4 598.203 515.686 587.292 551.426 551.414C587.168 515.664 598.074 472.369 600.452 424.978C603.183 376.79 603.183 233.22 600.452 185.026ZM524.144 473.192C514.818 496.633 496.802 514.667 473.211 524.133C455.517 531.147 424.62 534.081 391.799 535.104C368.579 535.828 345.223 535.591 325.98 535.396C318.254 535.318 311.19 535.246 305.065 535.246C299.062 535.246 292.151 535.313 284.595 535.385C265.259 535.571 241.694 535.797 218.286 535.056C185.445 534.016 154.539 531.083 136.903 524.127C113.474 514.798 95.4475 496.781 85.9842 473.189C78.9704 455.491 76.0366 424.584 75.0134 391.753C74.2895 368.528 74.5264 345.167 74.7215 325.92C74.7998 318.192 74.8714 311.127 74.8714 305C74.8714 298.996 74.8051 292.084 74.7326 284.526C74.547 265.185 74.3209 241.615 75.0618 218.202C76.1013 185.352 79.0344 154.438 85.9894 136.797C95.3165 113.363 113.33 95.3328 136.916 85.8681C154.61 78.8534 185.509 75.919 218.331 74.8957C241.551 74.1717 264.906 74.4085 284.149 74.6037C291.876 74.6821 298.939 74.7537 305.065 74.7537C311.068 74.7537 317.978 74.6874 325.535 74.6148C344.871 74.4292 368.436 74.203 391.844 74.9441C424.687 75.9839 455.595 78.9179 473.231 85.8749C496.66 95.2048 514.686 113.224 524.148 136.818C531.16 154.518 534.093 185.421 535.116 218.247C535.84 241.472 535.603 264.833 535.408 284.079C535.33 291.808 535.258 298.873 535.258 305C535.258 311.125 535.33 318.192 535.408 325.923C535.603 345.181 535.84 368.564 535.116 391.802C534.092 424.66 531.157 455.566 524.144 473.192Z" stroke="black" stroke-width="15"/>
</svg>
