<svg width="596" height="596" viewBox="0 0 596 596" fill="none" xmlns="http://www.w3.org/2000/svg">
<path d="M546.571 0.5H49.2991C22.2803 0.5 0.5 22.7217 0.5 49.817V546.183C0.5 573.278 22.2803 595.5 49.2991 595.5H546.571C573.56 595.5 595.5 573.309 595.5 546.183V49.817C595.5 22.691 573.56 0.5 546.571 0.5ZM49.2991 15.5H546.571C565.154 15.5 580.5 30.8536 580.5 49.817V546.183C580.5 565.146 565.154 580.5 546.571 580.5H49.2991C30.7465 580.5 15.5 565.177 15.5 546.183V49.817C15.5 30.8229 30.7465 15.5 49.2991 15.5ZM99.3304 512.643H183.295C187.509 512.643 190.924 509.226 190.924 505.013V230.348C190.924 225.102 186.671 220.848 181.424 220.848H99.3304C94.0836 220.848 89.8304 225.102 89.8304 230.348V503.143C89.8304 508.39 94.0836 512.643 99.3304 512.643ZM82.9688 140.701C82.9688 172.277 108.582 198.045 140.312 198.045C172.031 198.045 197.656 172.419 197.656 140.701C197.656 109.112 171.901 83.3571 140.312 83.3571C108.582 83.3571 82.9688 109.125 82.9688 140.701ZM421.567 512.643H503.531C508.778 512.643 513.031 508.39 513.031 503.143V353.411C513.031 315.955 509.05 281.079 492.909 255.484C476.269 229.098 447.701 213.987 402.348 213.987C368.88 213.987 343.335 227.744 327.25 244.761V230.348C327.25 225.102 322.997 220.848 317.75 220.848H239.281C234.035 220.848 229.781 225.102 229.781 230.348V503.143C229.781 508.39 234.035 512.643 239.281 512.643H321.246C326.492 512.643 330.746 508.39 330.746 503.143V368.17C330.746 350.248 332.519 334.168 338.842 322.71C341.906 317.158 346.009 312.756 351.564 309.682C357.162 306.585 364.677 304.594 374.902 304.594C384.704 304.594 391.411 306.877 396.151 310.194C400.909 313.523 404.329 318.343 406.766 324.512C411.809 337.28 412.067 354.12 412.067 370.5V503.143C412.067 508.39 416.32 512.643 421.567 512.643Z" stroke="black" stroke-width="15"/>
</svg>
